# xmcd CD database file
#
# Track frame offsets:
#	150
#	19656
#	46709
#	70420
#	94279
#	118148
#	136102
#	159685
#	185151
#	211593
#	234293
#	256924
#	280164
#
# Disc length: 4043 seconds
#
# Revision: 4
# Processed by: cddbd v1.5.2PL0 Copyright (c) Steve Scherf et al.
# Submitted via: CDex 1.70beta2
#
DISCID=b10fc90d
DTITLE=Etta James - Blue Gardenia
DYEAR=2001
DGENRE=Blues
TTITLE0=This Bitter Earth
TTITLE1=He's Funny That Way
TTITLE2=In My Solitude
TTITLE3=There Is No Greater Love
TTITLE4=Don't Let The Sun Catch You Crying
TTITLE5=Love Letters
TTITLE6=These Foolish Things
TTITLE7=Come Rain Or Come Shine
TTITLE8=Don't Worry 'Bout Me
TTITLE9=Cry Me a River
TTITLE10=Don't Blame Me
TTITLE11=My Man
TTITLE12=Blue Gardenia
EXTD=YEAR: 2001
EXTT0=
EXTT1=
EXTT2=
EXTT3=
EXTT4=
EXTT5=
EXTT6=
EXTT7=
EXTT8=
EXTT9=
EXTT10=
EXTT11=
EXTT12=
PLAYORDER=
